<svg xmlns="http://www.w3.org/2000/svg" width="210" height="48">
    <path fill="#333" fillRule="evenodd" d="M194.952 25.686V3.318h4.992v17.921h9.536v4.447h-14.528zm-17.2-22.368h4.992v17.921h9.536v4.447h-14.528V3.318zM163.016 25.91c-3.307 0-6.091-1.104-8.352-3.312-2.262-2.208-3.392-4.954-3.392-8.24 0-3.285 1.13-6.032 3.392-8.24 2.261-2.208 5.045-3.312 8.352-3.312 3.306 0 6.09 1.104 8.352 3.312 2.261 2.208 3.392 4.955 3.392 8.24 0 3.286-1.131 6.032-3.392 8.24-2.262 2.208-5.046 3.312-8.352 3.312zm4.736-16.64c-1.28-1.408-2.854-2.112-4.72-2.112-1.867 0-3.44.704-4.72 2.112-1.28 1.408-1.92 3.11-1.92 5.104 0 1.995.64 3.691 1.92 5.088 1.28 1.398 2.853 2.096 4.72 2.096 1.866 0 3.44-.698 4.72-2.096 1.28-1.397 1.92-3.093 1.92-5.088 0-1.994-.64-3.696-1.92-5.104zM143.76 25.686l-4.96-7.136h-3.456v7.136h-4.992V3.318h8.48c3.477 0 5.957.587 7.44 1.76 1.483 1.174 2.224 3.062 2.224 5.664 0 3.584-1.419 5.899-4.256 6.944l5.664 8h-6.144zm-1.312-17.408c-.64-.448-1.76-.672-3.36-.672h-3.744v6.624h3.648c1.706 0 2.869-.277 3.488-.832.619-.554.928-1.434.928-2.639 0-1.206-.32-2.033-.96-2.481zm-32.304 3.392v14.016h-4.992V3.318h4.672l10.976 14.4v-14.4h4.992v22.368H120.8L110.144 11.67zM84.952 3.318h16.128v4.448H89.944v4.608H99.96v4.256H89.944v4.64h11.488v4.416h-16.48V3.318zM76.16 25.686L71.2 18.55h-3.456v7.136h-4.992V3.318h8.48c3.477 0 5.957.587 7.44 1.76 1.483 1.174 2.224 3.062 2.224 5.664 0 3.584-1.419 5.899-4.256 6.944l5.664 8H76.16zM74.848 8.278c-.64-.448-1.76-.672-3.36-.672h-3.744v6.624h3.648c1.706 0 2.869-.277 3.488-.832.619-.554.928-1.434.928-2.639 0-1.206-.32-2.033-.96-2.481zM184.332 39.62c-.039.061-.113.091-.221.091h-4.381c.009.416.065.778.169 1.085.104.308.247.565.429.771.182.206.399.36.65.461.251.102.533.153.845.153.29 0 .541-.034.751-.101a3.526 3.526 0 0 0 .923-.436.5.5 0 0 1 .263-.1c.095 0 .169.037.221.11l.325.423a2.2 2.2 0 0 1-.514.452 3.2 3.2 0 0 1-.64.315 4.326 4.326 0 0 1-1.426.247c-.455 0-.875-.077-1.258-.231a2.762 2.762 0 0 1-.995-.676 3.112 3.112 0 0 1-.653-1.101c-.156-.438-.234-.941-.234-1.508 0-.46.07-.889.211-1.287.141-.399.344-.744.608-1.038.264-.292.587-.522.969-.688.381-.167.81-.25 1.287-.25.394 0 .758.065 1.092.197.333.133.621.324.864.573.243.249.432.557.569.923.136.366.205.783.205 1.251 0 .182-.02.303-.059.364zm-1.092-1.368a1.657 1.657 0 0 0-.325-.579 1.469 1.469 0 0 0-.523-.377 1.78 1.78 0 0 0-.705-.133c-.56 0-.999.162-1.32.484-.321.323-.52.77-.598 1.342h3.581a2.33 2.33 0 0 0-.11-.737zm-5.598-.692c-.061 0-.154-.021-.28-.062a1.762 1.762 0 0 0-.526-.062c-.403 0-.74.117-1.011.351-.271.234-.497.574-.679 1.02V43h-1.157v-6.585h.663c.126 0 .212.024.26.072.048.048.08.13.097.247l.079 1.027c.225-.459.503-.818.835-1.076.331-.257.72-.386 1.167-.386a1.738 1.738 0 0 1 .903.233l-.15.865c-.03.108-.097.163-.201.163zm-5.661 2.151H167.6c.009.416.065.778.169 1.085.104.308.247.565.429.771.182.206.399.36.65.461.251.102.533.153.845.153.29 0 .54-.034.751-.101a3.583 3.583 0 0 0 .923-.436.502.502 0 0 1 .263-.1c.095 0 .169.037.221.11l.325.423a2.214 2.214 0 0 1-.513.452c-.2.127-.413.233-.641.315a4.329 4.329 0 0 1-1.427.247 3.34 3.34 0 0 1-1.257-.231 2.762 2.762 0 0 1-.995-.676 3.112 3.112 0 0 1-.653-1.101c-.156-.438-.234-.941-.234-1.508 0-.46.07-.889.211-1.287.141-.399.344-.744.608-1.038.264-.292.587-.522.968-.688a3.18 3.18 0 0 1 1.287-.25c.395 0 .759.065 1.092.197.334.133.622.324.865.573.243.249.432.557.569.923.136.366.204.783.204 1.251 0 .182-.019.303-.058.364-.039.061-.113.091-.221.091zm-.871-1.459a1.657 1.657 0 0 0-.325-.579 1.46 1.46 0 0 0-.523-.377 1.781 1.781 0 0 0-.706-.133c-.558 0-.998.162-1.319.484-.321.323-.52.77-.598 1.342h3.582a2.33 2.33 0 0 0-.111-.737zm-6.928.555c0-.498-.114-.885-.342-1.16-.227-.275-.575-.413-1.043-.413-.342 0-.662.083-.959.248a3.146 3.146 0 0 0-.822.669V43h-1.157v-9.575h1.157v3.874c.282-.299.594-.538.936-.718a2.516 2.516 0 0 1 1.183-.269c.36 0 .677.059.952.178.275.119.505.289.689.507.184.219.324.482.419.79.096.308.144.648.144 1.02V43h-1.157v-4.193zM155.67 43c-.113 0-.191-.073-.234-.221l-1.456-4.465a2.53 2.53 0 0 1-.085-.303 19.771 19.771 0 0 0-.065-.302l-.065.305a2.267 2.267 0 0 1-.084.306l-1.475 4.459c-.048.148-.137.221-.267.221h-.871l-2.132-6.585h.91c.095 0 .173.024.234.072a.351.351 0 0 1 .123.169l1.262 4.238c.034.156.067.306.097.452.03.145.056.292.078.439.035-.147.074-.294.117-.439.043-.146.089-.296.137-.452l1.39-4.264a.32.32 0 0 1 .319-.227h.501c.086 0 .158.021.214.064a.344.344 0 0 1 .117.163l1.358 4.264c.048.152.09.301.127.448.037.148.073.293.107.436a7.637 7.637 0 0 1 .195-.884l1.287-4.238a.351.351 0 0 1 .339-.241h.87L156.587 43h-.917zm-11.157 2.152c-.058.051-.148.077-.269.077h-.858l1.202-2.612-2.717-6.202h1.001c.1 0 .178.026.234.075.056.05.097.106.123.166l1.762 4.147a3.143 3.143 0 0 1 .175.578l.091-.292c.031-.096.065-.193.104-.293l1.71-4.14a.37.37 0 0 1 .338-.241h.923l-3.672 8.528a.615.615 0 0 1-.147.209zm-3.196-7.592c-.061 0-.154-.021-.28-.062a1.762 1.762 0 0 0-.526-.062c-.403 0-.74.117-1.011.351-.271.234-.497.574-.679 1.02V43h-1.157v-6.585h.663c.126 0 .212.024.26.072.048.048.08.13.098.247l.077 1.027c.226-.459.504-.818.836-1.076.331-.257.72-.386 1.167-.386a1.748 1.748 0 0 1 .903.233l-.15.865c-.03.108-.097.163-.201.163zm-5.661 2.151h-4.381c.009.416.065.778.169 1.085.104.308.247.565.429.771.182.206.399.36.65.461.251.102.533.153.845.153.29 0 .541-.034.751-.101a3.526 3.526 0 0 0 .923-.436.502.502 0 0 1 .263-.1c.095 0 .169.037.221.11l.325.423a2.2 2.2 0 0 1-.514.452 3.2 3.2 0 0 1-.64.315 4.329 4.329 0 0 1-1.427.247c-.454 0-.874-.077-1.257-.231a2.762 2.762 0 0 1-.995-.676 3.112 3.112 0 0 1-.653-1.101c-.156-.438-.234-.941-.234-1.508 0-.46.07-.889.211-1.287.141-.399.344-.744.608-1.038.264-.292.587-.522.969-.688.381-.167.81-.25 1.286-.25.395 0 .759.065 1.093.197.333.133.621.324.864.573.243.249.432.557.569.923.136.366.205.783.205 1.251 0 .182-.02.303-.059.364-.039.061-.113.091-.221.091zm-.871-1.459a1.657 1.657 0 0 0-.325-.579 1.469 1.469 0 0 0-.523-.377 1.78 1.78 0 0 0-.705-.133c-.559 0-.999.162-1.32.484-.321.323-.52.77-.598 1.342h3.582a2.33 2.33 0 0 0-.111-.737zM126.386 43l-2.684-6.585h.949c.091 0 .167.024.228.072.06.048.104.104.13.169l1.67 4.238c.061.156.108.312.143.468.035.156.067.31.098.462.034-.152.071-.306.11-.462.039-.156.089-.312.149-.468l1.691-4.238a.348.348 0 0 1 .344-.241h.903L127.433 43h-1.047zm-9.735-9.315h5.74v1.028h-4.472v3.093h3.62v.989h-3.62v3.178h4.472V43h-5.74v-9.315zm-5.255 6.026h-4.381c.009.416.065.778.169 1.085.104.308.247.565.429.771.182.206.399.36.65.461.251.102.533.153.845.153.29 0 .54-.034.751-.101a3.526 3.526 0 0 0 .923-.436.502.502 0 0 1 .263-.1c.095 0 .169.037.221.11l.325.423a2.2 2.2 0 0 1-.514.452 3.2 3.2 0 0 1-.64.315 4.329 4.329 0 0 1-1.427.247 3.34 3.34 0 0 1-1.257-.231 2.762 2.762 0 0 1-.995-.676 3.112 3.112 0 0 1-.653-1.101c-.156-.438-.234-.941-.234-1.508 0-.46.07-.889.211-1.287.141-.399.344-.744.608-1.038.264-.292.587-.522.968-.688a3.18 3.18 0 0 1 1.287-.25c.395 0 .759.065 1.092.197.334.133.622.324.865.573.243.249.432.557.569.923.136.366.204.783.204 1.251 0 .182-.019.303-.058.364-.039.061-.113.091-.221.091zm-.871-1.459a1.657 1.657 0 0 0-.325-.579 1.46 1.46 0 0 0-.523-.377 1.78 1.78 0 0 0-.705-.133c-.559 0-.999.162-1.32.484-.321.323-.52.77-.598 1.342h3.582a2.33 2.33 0 0 0-.111-.737zm-7.484.555c0-.515-.112-.906-.337-1.173-.226-.266-.553-.4-.982-.4-.191 0-.372.034-.543.101a1.309 1.309 0 0 0-.76.787 1.895 1.895 0 0 0-.114.685V43h-1.157v-4.193c0-.528-.106-.922-.319-1.183-.212-.26-.522-.39-.929-.39-.286 0-.552.078-.796.231a2.618 2.618 0 0 0-.673.627V43h-1.157v-6.585h.689c.165 0 .269.081.312.241l.084.676c.243-.299.515-.544.816-.735.301-.19.651-.285 1.05-.285.446 0 .807.123 1.082.37s.474.581.595 1.001a2.048 2.048 0 0 1 .864-1.046c.187-.113.385-.196.595-.247.21-.052.424-.078.641-.078.346 0 .655.055.926.165.27.111.5.272.689.484.188.213.332.474.432.784.1.31.149.664.149 1.062V43h-1.157v-4.193zm-9.535-3.884a.842.842 0 0 1-.264.18.79.79 0 0 1-.633 0 .848.848 0 0 1-.26-.18.829.829 0 0 1-.179-.259.82.82 0 0 1 .179-.904.86.86 0 0 1 .26-.178.753.753 0 0 1 .315-.065c.113 0 .219.021.318.065a.853.853 0 0 1 .446.445.788.788 0 0 1 0 .637.891.891 0 0 1-.182.259zm-4.626 7.031a.703.703 0 0 0 .52.201.906.906 0 0 0 .315-.049 1.39 1.39 0 0 0 .231-.107c.065-.039.12-.074.165-.107a.216.216 0 0 1 .121-.049c.06 0 .114.037.162.111l.338.552a2.16 2.16 0 0 1-.721.439 2.455 2.455 0 0 1-.871.159c-.521 0-.92-.145-1.2-.435-.279-.291-.419-.709-.419-1.255v-4.03h-.793a.263.263 0 0 1-.176-.062c-.047-.041-.071-.105-.071-.191v-.462l1.079-.137.267-2.034a.24.24 0 0 1 .084-.159.27.27 0 0 1 .182-.062h.585v2.268h1.885v.839h-1.885v3.952c0 .277.067.483.202.618zm-7.017 3.198c-.058.051-.148.077-.269.077h-.858l1.202-2.612-2.717-6.202h1.001c.1 0 .178.026.234.075.056.05.097.106.123.166l1.762 4.147a3.143 3.143 0 0 1 .175.578l.091-.292c.031-.096.065-.193.104-.293l1.71-4.14a.37.37 0 0 1 .338-.241h.923l-3.672 8.528a.615.615 0 0 1-.147.209zm-4.526-6.345c0-.498-.114-.885-.342-1.16-.227-.275-.575-.413-1.043-.413-.342 0-.662.083-.959.248a3.146 3.146 0 0 0-.822.669V43h-1.157v-6.585h.689c.165 0 .269.081.312.241l.091.715c.286-.316.605-.572.959-.767.353-.195.761-.292 1.225-.292.36 0 .677.059.952.178.275.119.505.289.689.507.184.219.324.482.419.79.096.308.144.648.144 1.02V43h-1.157v-4.193zm-6.79 4.108a.497.497 0 0 1-.156-.214l-.871-2.249h-4.18l-.871 2.249a.504.504 0 0 1-.156.208.42.42 0 0 1-.273.091h-.975l3.725-9.315h1.28L71.795 43h-.976a.414.414 0 0 1-.272-.085zm-2.841-7.163a7.081 7.081 0 0 1-.279-.877c-.048.177-.095.341-.14.491-.046.149-.09.28-.134.393l-1.462 3.783h3.478l-1.463-3.79zM93.496 43h-1.157v-6.585h1.157V43z"/>
    <path fill="#F7A63D" fillRule="evenodd" d="M8 0h32a8 8 0 0 1 8 7.999V40a8 8 0 0 1-8 8H8a8 8 0 0 1-8-8V7.999A8 8 0 0 1 8 0z"/>
    <path fill="#FFF" fillRule="evenodd" d="M40.022 36.378c-.73 1.748-2.503 2.958-4.347 2.945a4.69 4.69 0 0 1-3.292-1.315 5.041 5.041 0 0 1-1.464-2.731c-4.671 0-9.343-.003-14.015.001-.28 1.6-1.374 3.014-2.825 3.645a4.685 4.685 0 0 1-3.784 0c-1.674-.723-2.862-2.501-2.897-4.378a5.03 5.03 0 0 1 1.134-3.384 4.747 4.747 0 0 1 2.761-1.66 4.66 4.66 0 0 1 3.053.443 4.906 4.906 0 0 1 2.16 2.265c.591-.465 1.299-.81 2.054-.807h9.981c.504.004 1.02-.038 1.508.119.47.125.88.4 1.269.688.21-.458.509-.861.82-1.248.042-.652-.055-1.309-.137-1.956-.233-1.595-.593-3.168-.98-4.731a140.07 140.07 0 0 0-2.324-8.123c-.485-1.456-.968-2.911-1.46-4.365-.446-.038-.891-.083-1.338-.12-.332.392-.819.64-1.327.636-1.496.002-2.991.005-4.487-.002-.889.006-1.685-.804-1.689-1.724-.055-.933.714-1.81 1.618-1.838 1.52-.006 3.038 0 4.557-.003.603-.014 1.172.344 1.489.863.673.066 1.347.123 2.02.189a.996.996 0 0 1 .838.673c2.117 6.321 4.221 12.648 6.341 18.97a4.665 4.665 0 0 1 2.924.738 4.928 4.928 0 0 1 1.918 2.388 5.134 5.134 0 0 1-.079 3.822zm-25.707-3.795c-.4-.51-.976-.873-1.602-.996a2.677 2.677 0 0 0-1.687.215 2.817 2.817 0 0 0-1.454 1.715 2.907 2.907 0 0 0 .245 2.276 2.76 2.76 0 0 0 1.808 1.35 2.664 2.664 0 0 0 2.142-.459 2.854 2.854 0 0 0 1.146-2.002 2.901 2.901 0 0 0-.598-2.099zm23.562.152a2.754 2.754 0 0 0-1.713-1.148 2.667 2.667 0 0 0-1.988.385 2.852 2.852 0 0 0-1.264 2.086c-.078.698.11 1.422.514 1.987a2.737 2.737 0 0 0 1.837 1.131 2.673 2.673 0 0 0 1.997-.523 2.897 2.897 0 0 0 .617-3.918zm-3.104 2.81c-.476-.364-.682-1.048-.495-1.628.212-.741 1.043-1.199 1.757-.965.516.15.927.622 1.009 1.17a1.502 1.502 0 0 1-.581 1.451 1.406 1.406 0 0 1-1.69-.028zm-21.917.128c-.52.291-1.213.2-1.641-.224-.529-.487-.606-1.393-.168-1.968a1.411 1.411 0 0 1 1.54-.529c.541.157.963.67 1.018 1.249.074.587-.238 1.202-.749 1.472z"/>
</svg>
